HIERARCHY
ROOT root
{
	OFFSET 0.000000 0.000000 0.000000
	CHANNELS 6 Xposition Yposition Zposition Zrotation Yrotation Xrotation
	JOINT lhip
	{
		OFFSET 0.058581 -0.082280 -0.017664
		CHANNELS 3 Zrotation Yrotation Xrotation
		JOINT lknee
		{
			OFFSET 0.043451 -0.386469 0.008037
			CHANNELS 3 Zrotation Yrotation Xrotation
			JOINT lankle
			{
				OFFSET -0.014790 -0.426874 -0.037428
				CHANNELS 3 Zrotation Yrotation Xrotation
				JOINT ltoe
				{
					OFFSET 0.041054 -0.060286 0.122042
					CHANNELS 3 Zrotation Yrotation Xrotation
					End Site
					{
						OFFSET 0.000000 0.000000 0.000000
					}
				}
			}
		}
	}
	JOINT rhip
	{
		OFFSET -0.060310 -0.090513 -0.013543
		CHANNELS 3 Zrotation Yrotation Xrotation
		JOINT rknee
		{
			OFFSET -0.043257 -0.383688 -0.004843
			CHANNELS 3 Zrotation Yrotation Xrotation
			JOINT rankle
			{
				OFFSET 0.019056 -0.420046 -0.034562
				CHANNELS 3 Zrotation Yrotation Xrotation
				JOINT rtoe
				{
					OFFSET -0.034840 -0.062106 0.130323
					CHANNELS 3 Zrotation Yrotation Xrotation
					End Site
					{
						OFFSET 0.000000 0.000000 0.000000
					}
				}
			}
		}
	}
	JOINT lowerback
	{
		OFFSET 0.004439 0.124404 -0.038385
		CHANNELS 3 Zrotation Yrotation Xrotation
		JOINT upperback
		{
			OFFSET 0.004488 0.137956 0.026820
			CHANNELS 3 Zrotation Yrotation Xrotation
			JOINT chest
			{
				OFFSET -0.002265 0.056032 0.002855
				CHANNELS 3 Zrotation Yrotation Xrotation
				JOINT lowerneck
				{
					OFFSET -0.013390 0.211636 -0.033468
					CHANNELS 3 Zrotation Yrotation Xrotation
					JOINT upperneck
					{
						OFFSET 0.010113 0.088937 0.050410
						CHANNELS 3 Zrotation Yrotation Xrotation
						End Site
						{
							OFFSET 0.000000 0.000000 0.000000
						}
					}
				}
				JOINT lclavicle
				{
					OFFSET 0.071702 0.114000 -0.018898
					CHANNELS 3 Zrotation Yrotation Xrotation
					JOINT lshoulder
					{
						OFFSET 0.122921 0.045205 -0.019046
						CHANNELS 3 Zrotation Yrotation Xrotation
						JOINT lelbow
						{
							OFFSET 0.255332 -0.015649 -0.022946
							CHANNELS 3 Zrotation Yrotation Xrotation
							JOINT lwrist
							{
								OFFSET 0.265709 0.012698 -0.007375
								CHANNELS 3 Zrotation Yrotation Xrotation
								End Site
								{
									OFFSET 0.000000 0.000000 0.000000
								}
							}
						}
					}
				}
				JOINT rclavicle
				{
					OFFSET -0.082954 0.112472 -0.023707
					CHANNELS 3 Zrotation Yrotation Xrotation
					JOINT rshoulder
					{
						OFFSET -0.113228 0.046853 -0.008472
						CHANNELS 3 Zrotation Yrotation Xrotation
						JOINT relbow
						{
							OFFSET -0.260127 -0.014369 -0.031269
							CHANNELS 3 Zrotation Yrotation Xrotation
							JOINT rwrist
							{
								OFFSET -0.269108 0.006794 -0.006027
								CHANNELS 3 Zrotation Yrotation Xrotation
								End Site
								{
									OFFSET 0.000000 0.000000 0.000000
								}
							}
						}
					}
				}
			}
		}
	}
}
MOTION
Frames: 7
Frame Time: 0.033333
-0.290878 0.757317 1.001937 -77.927111 0.121521 85.531864 5.675168 0.001405 8.106746 -10.820694 -10.032875 42.588764 -4.011071 2.359303 20.457373 0.000000 -0.000000 0.000000 4.743192 -0.967196 -4.333825 -1.714407 -4.449159 -0.315427 -3.781696 -9.855178 1.669161 0.000000 -0.000000 0.000000 -3.275779 -1.172485 4.685432 0.533150 -1.671465 0.414369 -0.334452 -0.424852 -1.726484 0.649602 -7.616670 -1.267602 4.042587 -7.194925 5.173242 -25.469811 -2.109051 5.281781 -52.132805 -7.631968 10.307470 -1.660713 -19.848151 16.315053 -8.149634 -1.910924 0.762416 24.898764 6.205375 5.114261 54.351811 1.344962 14.989489 -7.130549 26.528244 7.672341 6.617072 0.664461 -3.368174 
-0.318397 0.761166 1.002468 -78.113728 0.013664 84.982764 5.856552 -0.815946 3.347215 -11.093059 -6.440618 50.065374 -3.433043 3.072316 19.574843 0.000000 -0.000000 0.000000 5.365135 -2.065234 -1.419162 -1.691458 -3.691018 -0.873775 -4.211315 -9.632810 0.097414 0.000000 -0.000000 0.000000 -3.194744 0.280914 5.502692 0.369428 -1.854142 -0.191562 -0.512945 -0.254682 -1.176473 0.584446 -8.047437 -1.627487 4.016184 -7.632125 6.285960 -25.283515 -1.440496 4.670722 -50.994816 -7.383645 9.528949 -1.179936 -21.155854 14.245617 -6.281000 -2.975173 -1.483130 25.124941 6.328674 4.659684 53.340372 1.943902 15.318073 -6.527731 27.169512 8.292606 5.426653 0.989656 -3.605707 
-0.343761 0.764617 1.003285 -79.006277 -0.282623 84.615263 5.624131 -1.182398 -1.801768 -11.158525 -3.327512 56.047752 -2.005848 3.134836 13.882762 0.000000 -0.000000 0.000000 5.716290 -3.114528 0.815194 -1.854497 -2.393645 -0.826423 -3.966097 -9.360529 -1.998209 0.000000 -0.000000 0.000000 -3.211023 1.782656 6.374392 0.130325 -1.650070 -1.147699 -0.669372 0.237626 -0.644339 0.818379 -8.376350 -1.717656 3.732807 -8.154403 7.427756 -25.401486 -0.560660 3.504823 -50.275703 -7.497910 8.366992 0.054029 -21.969873 11.523267 -4.623476 -3.100619 -3.139887 25.412031 6.436206 4.110576 52.562973 2.805518 15.400471 -6.343327 26.924160 8.124421 4.396554 0.884734 -3.412990 
-0.368590 0.767054 1.004139 -80.404055 -0.832084 84.014085 4.937649 -1.335020 -6.288288 -10.725436 -0.479795 59.240543 -0.762152 3.389112 8.506157 0.000000 -0.000000 0.000000 5.554560 -3.823923 3.566801 -2.000632 -1.357358 -1.160219 -2.853951 -8.783430 -3.532832 0.000000 -0.000000 0.000000 -3.373448 3.272089 7.197581 -0.145378 -1.298222 -1.743383 -0.782699 0.893532 0.026030 0.850124 -8.705858 -1.738033 3.598223 -8.671200 7.856749 -25.167454 -0.080187 2.482372 -50.600207 -7.827688 7.458043 2.164651 -21.789825 8.918940 -3.419483 -3.487092 -4.564356 25.276555 6.843979 3.588997 52.384572 3.981309 15.574131 -6.586364 25.972884 8.318806 3.674704 0.662313 -2.815197 
-0.392776 0.769185 1.005061 -81.951625 -1.410597 83.346559 4.134736 -1.677701 -10.313641 -10.207773 1.917522 59.697654 0.600700 3.776408 4.126938 0.000000 -0.000000 0.000000 5.275501 -4.406255 6.425277 -2.283416 -0.331727 -1.556170 -2.201019 -8.231347 -4.732686 0.000000 -0.000000 0.000000 -3.448029 4.741244 8.109405 -0.566572 -1.029008 -2.082342 -0.817463 1.445370 0.436380 1.024818 -8.579726 -2.149535 3.524599 -8.798374 8.197235 -25.007838 0.040583 1.546346 -50.919314 -8.200324 6.599625 4.033436 -21.053293 6.562572 -2.451854 -3.395065 -5.282052 25.099117 7.723030 3.460271 52.411907 5.406737 15.658009 -6.897401 24.792165 7.801677 3.158391 0.448124 -2.383606 
-0.416567 0.771080 1.005314 -83.795724 -1.957757 82.689821 3.249257 -1.996932 -13.666067 -8.825538 4.108114 57.518434 1.451697 4.781663 -0.090180 0.000000 -0.000000 0.000000 4.906613 -5.073807 9.226625 -2.658246 0.883169 -1.988967 -1.428624 -7.645456 -6.169753 0.000000 -0.000000 0.000000 -3.427914 6.084393 8.969764 -0.945451 -0.919809 -2.085324 -0.893477 2.101892 0.673264 1.137017 -8.352859 -2.353563 3.396749 -8.968582 8.048435 -25.339653 -0.038756 1.181792 -50.617119 -7.811493 5.890919 5.483195 -21.725374 4.089872 -1.654358 -2.914667 -6.065401 25.337215 8.885359 3.612004 52.107225 6.639300 15.590233 -7.432758 24.866173 6.643199 2.795009 0.181300 -2.250794 
-0.440865 0.771686 1.004020 -85.453508 -2.358323 82.287149 2.385969 -2.985714 -16.539976 -7.907500 5.657273 52.856609 2.520333 5.967190 -2.505896 0.000000 -0.000000 0.000000 4.313367 -5.850374 11.869369 -2.835021 2.023785 -2.674482 -0.772006 -7.370515 -7.636341 0.000000 -0.000000 0.000000 -2.993015 7.176603 9.420197 -1.294364 -1.075140 -1.907016 -1.071582 2.483313 0.924357 1.120698 -7.529929 -2.572707 3.285501 -8.718667 7.595997 -25.363100 -0.388670 1.005027 -50.508098 -7.265946 5.759693 5.969782 -21.725775 3.333002 -1.464591 -2.794088 -6.789548 25.166780 9.837235 3.615569 52.056005 7.832289 15.840403 -7.237004 25.514016 6.920514 2.251934 0.455446 -1.996515 
